<?xml version="1.0" encoding="utf-8"?>
<!-- Generator: Adobe Illustrator 21.0.0, SVG Export Plug-In . SVG Version: 6.00 Build 0)  -->
<svg version="1.1" id="Layer_1" xmlns="http://www.w3.org/2000/svg" xmlns:xlink="http://www.w3.org/1999/xlink" x="0px" y="0px"
	 viewBox="0 0 238 18" style="enable-background:new 0 0 238 18;" xml:space="preserve">
<style type="text/css">
	.st0{fill:#1780C3;}
</style>
<g>
	<path class="st0" d="M2.9,15.9H0.5V2.1h2.4V15.9z"/>
	<path class="st0" d="M13.6,15.9H7.9V2.1h5.8c4.4,0,6.8,2.1,6.8,6.9S18,15.9,13.6,15.9z M10.2,13.8h3.6C16.7,13.8,18,12,18,9
		c0-3-1.3-4.8-4.1-4.8h-3.6V13.8z"/>
	<path class="st0" d="M35,2.1v2.2h-8.3v3.5H34v2.2h-7.4v3.9h8.8v2.2H24.3V2.1H35z"/>
	<path class="st0" d="M45.9,1.8l5.9,14.1h-2.5L48,12.7h-6.4l-1.2,3.2h-2.5l5.9-14.1H45.9z M42.3,10.7h4.9l-1.3-3.4l-1.1-2.9
		l-1.1,2.9L42.3,10.7z"/>
	<path class="st0" d="M60.3,9.7c-2.5-0.2-5.7-0.6-5.7-3.7c0-3,2.7-4.3,5.8-4.3c4,0,5.9,1.6,6.1,4.2L64,6.3C63.8,4.6,62.9,4,60.5,4
		c-1.6,0-3.6,0.3-3.6,2c0,1.2,1.2,1.6,3.5,1.8c3.3,0.3,6.1,0.6,6.1,4c0,3.2-3,4.4-6.3,4.4c-4.3,0-6-1.7-6.2-4.3l2.4-0.3
		c0.2,1.7,1.4,2.4,3.7,2.4c2.1,0,3.9-0.5,3.9-2.2C64.1,10.3,63,10,60.3,9.7z"/>
	<path class="st0" d="M83.4,1.8l5.9,14.1h-2.5l-1.2-3.2h-6.4l-1.2,3.2h-2.5l5.9-14.1H83.4z M79.8,10.7h4.9l-1.3-3.4l-1.1-2.9
		l-1.1,2.9L79.8,10.7z"/>
	<path class="st0" d="M96.7,8.9l-2.3-2.9l0.1,3.6v6.4h-2.4V2.1h2.1l7.8,10l0-3.5V2.1h2.4v13.8h-2.1L96.7,8.9z"/>
	<path class="st0" d="M114.6,15.9h-5.8V2.1h5.8c4.4,0,6.8,2.1,6.8,6.9S119,15.9,114.6,15.9z M111.2,13.8h3.6c2.8,0,4.1-1.7,4.1-4.8
		c0-3-1.3-4.8-4.1-4.8h-3.6V13.8z"/>
	<path class="st0" d="M133.4,15.9H131V2.1h2.4V15.9z"/>
	<path class="st0" d="M142.9,8.9l-2.3-2.9l0.1,3.6v6.4h-2.4V2.1h2.1l7.8,10l0-3.5V2.1h2.4v13.8h-2.1L142.9,8.9z"/>
	<path class="st0" d="M160.7,9.7c-2.5-0.2-5.7-0.6-5.7-3.7c0-3,2.7-4.3,5.8-4.3c4,0,5.9,1.6,6.1,4.2l-2.5,0.3
		C164.2,4.6,163.3,4,161,4c-1.6,0-3.6,0.3-3.6,2c0,1.2,1.2,1.6,3.5,1.8c3.3,0.3,6.1,0.6,6.1,4c0,3.2-3,4.4-6.3,4.4
		c-4.3,0-6-1.7-6.2-4.3l2.4-0.3c0.2,1.7,1.4,2.4,3.7,2.4c2.1,0,3.9-0.5,3.9-2.2C164.5,10.3,163.4,10,160.7,9.7z"/>
	<path class="st0" d="M173.8,15.9h-2.4V2.1h2.4V15.9z"/>
	<path class="st0" d="M185.1,1.8c4.1,0,6.2,1.7,6.5,4.3l-2.5,0.3c-0.2-1.6-1.6-2.4-3.9-2.4c-3.2,0-4.6,1.9-4.6,5c0,3.3,1.5,5,5,5
		c1.7,0,3-0.4,3.6-0.7v-2.9h-3.3v-2h5.7v6.2c-1.5,0.9-3.4,1.6-6.4,1.6c-4.6,0-7-2.8-7-7.2S180.5,1.8,185.1,1.8z"/>
	<path class="st0" d="M208.4,2.1v13.8H206v-6h-7.7v6H196V2.1h2.4v5.6h7.7V2.1H208.4z"/>
	<path class="st0" d="M218.3,15.9H216V4.2h-4.7V2.1H223v2.2h-4.7V15.9z"/>
	<path class="st0" d="M231.3,9.7c-2.5-0.2-5.7-0.6-5.7-3.7c0-3,2.7-4.3,5.8-4.3c4,0,5.9,1.6,6.1,4.2L235,6.3
		c-0.2-1.7-1.1-2.4-3.5-2.4c-1.6,0-3.6,0.3-3.6,2c0,1.2,1.2,1.6,3.5,1.8c3.3,0.3,6.1,0.6,6.1,4c0,3.2-3,4.4-6.3,4.4
		c-4.3,0-6-1.7-6.2-4.3l2.4-0.3c0.2,1.7,1.4,2.4,3.7,2.4c2.1,0,3.9-0.5,3.9-2.2C235.1,10.3,234,10,231.3,9.7z"/>
</g>
</svg>
